<svg xmlns="http://www.w3.org/2000/svg" xmlns:xlink="http://www.w3.org/1999/xlink" width="137" zoomAndPan="magnify" viewBox="0 0 102.75 133.500001" height="178" preserveAspectRatio="xMidYMid meet" version="1.0"><defs><g/><clipPath id="b6e48825e5"><path d="M 0.0664062 0 L 102.433594 0 L 102.433594 131 L 0.0664062 131 Z M 0.0664062 0 " clip-rule="nonzero"/></clipPath><clipPath id="4647981ff1"><path d="M 0.304688 27 L 102.164062 27 L 102.164062 130 L 0.304688 130 Z M 0.304688 27 " clip-rule="nonzero"/></clipPath><clipPath id="dc47120128"><rect x="0" width="52" y="0" height="38"/></clipPath><clipPath id="82d4b2dff8"><path d="M 85.800781 97 L 95.253906 97 L 95.253906 110.078125 L 85.800781 110.078125 Z M 85.800781 97 " clip-rule="nonzero"/></clipPath><clipPath id="7307bff636"><rect x="0" width="103" y="0" height="131"/></clipPath></defs><g clip-path="url(#b6e48825e5)"><g transform="matrix(1, 0, 0, 1, 0, 0.000000000000006973)"><g clip-path="url(#7307bff636)"><g clip-path="url(#4647981ff1)"><path fill="#f5f5dc" d="M 98.691406 78.664062 C 98.691406 76.277344 102.332031 73.660156 102.003906 71.367188 C 101.667969 69.015625 97.4375 67.523438 96.785156 65.289062 C 96.132812 63.058594 98.867188 59.480469 97.898438 57.355469 C 96.925781 55.230469 92.4375 54.976562 91.167969 53.007812 C 89.894531 51.039062 91.53125 46.855469 89.996094 45.082031 C 88.460938 43.308594 84.089844 44.339844 82.328125 42.808594 C 80.5625 41.277344 80.960938 36.804688 78.980469 35.53125 C 77 34.253906 73.117188 36.476562 70.96875 35.5 C 68.820312 34.519531 67.964844 30.117188 65.695312 29.453125 C 63.425781 28.792969 60.351562 32.027344 58 31.691406 C 55.703125 31.367188 53.628906 27.390625 51.242188 27.390625 C 48.855469 27.390625 46.78125 31.367188 44.484375 31.691406 C 42.132812 32.027344 39.027344 28.796875 36.792969 29.453125 C 34.5625 30.109375 33.648438 34.519531 31.527344 35.488281 C 29.40625 36.460938 25.484375 34.253906 23.515625 35.519531 C 21.546875 36.789062 21.941406 41.265625 20.167969 42.800781 C 18.398438 44.335938 14.027344 43.304688 12.5 45.074219 C 10.972656 46.839844 12.605469 51.019531 11.328125 52.996094 C 10.054688 54.976562 5.582031 55.199219 4.597656 57.347656 C 3.617188 59.492188 6.378906 63.007812 5.710938 65.28125 C 5.042969 67.550781 0.828125 69.003906 0.492188 71.355469 C 0.164062 73.648438 3.804688 76.265625 3.804688 78.652344 C 3.804688 81.039062 0.164062 83.652344 0.492188 85.949219 C 0.828125 88.304688 5.058594 89.792969 5.710938 92.027344 C 6.363281 94.257812 3.628906 97.839844 4.597656 99.960938 C 5.566406 102.082031 10.0625 102.339844 11.328125 104.308594 C 12.597656 106.277344 10.964844 110.460938 12.5 112.234375 C 14.035156 114.003906 18.40625 112.972656 20.167969 114.503906 C 21.933594 116.035156 21.535156 120.511719 23.515625 121.78125 C 25.496094 123.054688 29.378906 120.832031 31.527344 121.816406 C 33.675781 122.800781 34.519531 127.1875 36.792969 127.855469 C 39.066406 128.523438 42.132812 125.277344 44.484375 125.613281 C 46.78125 125.941406 48.855469 129.917969 51.242188 129.917969 C 53.628906 129.917969 55.703125 125.941406 58 125.613281 C 60.351562 125.277344 63.457031 128.507812 65.695312 127.855469 C 67.929688 127.203125 68.835938 122.789062 70.960938 121.816406 C 73.085938 120.84375 77 123.050781 78.96875 121.78125 C 80.9375 120.511719 80.542969 116.039062 82.316406 114.503906 C 84.089844 112.964844 88.457031 113.996094 89.984375 112.230469 C 91.511719 110.464844 89.882812 106.285156 91.15625 104.304688 C 92.433594 102.324219 96.902344 102.105469 97.886719 99.957031 C 98.867188 97.808594 96.105469 94.296875 96.773438 92.023438 C 97.441406 89.75 101.660156 88.300781 101.992188 85.945312 C 102.332031 83.664062 98.691406 81.050781 98.691406 78.664062 Z M 98.691406 78.664062 " fill-opacity="1" fill-rule="nonzero"/></g><path fill="#76220b" d="M 56.910156 40.417969 C 56.910156 40.789062 56.875 41.160156 56.800781 41.523438 C 56.730469 41.890625 56.621094 42.242188 56.480469 42.585938 C 56.335938 42.929688 56.164062 43.257812 55.957031 43.566406 C 55.75 43.878906 55.515625 44.164062 55.25 44.425781 C 54.988281 44.691406 54.703125 44.925781 54.390625 45.132812 C 54.082031 45.339844 53.753906 45.511719 53.410156 45.65625 C 53.066406 45.796875 52.714844 45.90625 52.347656 45.976562 C 51.984375 46.050781 51.613281 46.085938 51.242188 46.085938 C 50.871094 46.085938 50.5 46.050781 50.136719 45.976562 C 49.769531 45.90625 49.417969 45.796875 49.074219 45.65625 C 48.730469 45.511719 48.402344 45.339844 48.09375 45.132812 C 47.78125 44.925781 47.496094 44.691406 47.234375 44.425781 C 46.96875 44.164062 46.734375 43.878906 46.527344 43.566406 C 46.320312 43.257812 46.148438 42.929688 46.003906 42.585938 C 45.863281 42.242188 45.753906 41.890625 45.683594 41.523438 C 45.609375 41.160156 45.574219 40.789062 45.574219 40.417969 C 45.574219 40.046875 45.609375 39.675781 45.683594 39.3125 C 45.753906 38.945312 45.863281 38.59375 46.003906 38.25 C 46.148438 37.90625 46.320312 37.578125 46.527344 37.269531 C 46.734375 36.957031 46.96875 36.671875 47.234375 36.410156 C 47.496094 36.144531 47.78125 35.910156 48.09375 35.703125 C 48.402344 35.496094 48.730469 35.324219 49.074219 35.179688 C 49.417969 35.039062 49.769531 34.929688 50.136719 34.859375 C 50.5 34.785156 50.871094 34.75 51.242188 34.75 C 51.613281 34.75 51.984375 34.785156 52.347656 34.859375 C 52.714844 34.929688 53.066406 35.039062 53.410156 35.179688 C 53.753906 35.324219 54.082031 35.496094 54.390625 35.703125 C 54.703125 35.910156 54.988281 36.144531 55.25 36.410156 C 55.515625 36.671875 55.75 36.957031 55.957031 37.269531 C 56.164062 37.578125 56.335938 37.90625 56.480469 38.25 C 56.621094 38.59375 56.730469 38.945312 56.800781 39.3125 C 56.875 39.675781 56.910156 40.046875 56.910156 40.417969 Z M 56.910156 40.417969 " fill-opacity="1" fill-rule="nonzero"/><path fill="#4f120d" d="M 54.273438 40.417969 C 54.273438 40.015625 54.195312 39.628906 54.042969 39.257812 C 53.886719 38.886719 53.667969 38.558594 53.386719 38.273438 C 53.101562 37.992188 52.773438 37.773438 52.402344 37.617188 C 52.03125 37.464844 51.644531 37.386719 51.242188 37.386719 C 50.839844 37.386719 50.453125 37.464844 50.082031 37.617188 C 49.710938 37.773438 49.382812 37.992188 49.097656 38.273438 C 48.816406 38.558594 48.597656 38.886719 48.441406 39.257812 C 48.289062 39.628906 48.210938 40.015625 48.210938 40.417969 C 48.210938 40.820312 48.289062 41.207031 48.441406 41.578125 C 48.597656 41.949219 48.816406 42.277344 49.097656 42.5625 C 49.382812 42.84375 49.710938 43.0625 50.082031 43.21875 C 50.453125 43.371094 50.839844 43.449219 51.242188 43.449219 C 51.644531 43.449219 52.03125 43.371094 52.402344 43.21875 C 52.773438 43.0625 53.101562 42.84375 53.386719 42.5625 C 53.667969 42.277344 53.886719 41.949219 54.042969 41.578125 C 54.195312 41.207031 54.273438 40.820312 54.273438 40.417969 Z M 54.273438 40.417969 " fill-opacity="1" fill-rule="nonzero"/><path fill="#262227" d="M 51.296875 0 L 51.191406 0 C 47.136719 0.148438 46.324219 8.621094 46.878906 15.253906 C 47.519531 22.839844 49.699219 29.835938 49.558594 37.800781 C 49.535156 38.933594 51.027344 39.070312 51.050781 37.835938 C 51.050781 37.835938 51.144531 33.511719 50.925781 31.851562 C 50.105469 25.601562 48.34375 18.332031 48.34375 11.269531 C 48.34375 7.574219 48.824219 2.265625 51.242188 1.953125 C 53.664062 2.265625 53.976562 7.574219 53.976562 11.269531 C 53.976562 18.332031 52.386719 25.515625 51.570312 31.773438 C 51.351562 33.4375 51.441406 37.757812 51.441406 37.757812 C 51.464844 38.992188 52.949219 38.925781 52.929688 37.800781 C 52.785156 29.847656 54.96875 22.839844 55.605469 15.253906 C 56.160156 8.621094 55.347656 0.148438 51.296875 0 Z M 51.296875 0 " fill-opacity="1" fill-rule="nonzero"/><path fill="#121012" d="M 53.191406 30.816406 C 52.90625 30.832031 52.640625 30.765625 52.390625 30.628906 C 52.140625 30.488281 51.949219 30.292969 51.808594 30.046875 C 51.726562 30.613281 51.644531 31.207031 51.570312 31.773438 C 51.484375 32.417969 51.445312 33.457031 51.429688 34.492188 C 51.964844 34.179688 52.925781 34.695312 52.96875 35.019531 C 53.035156 33.601562 53.164062 32.179688 53.332031 30.804688 C 53.285156 30.8125 53.238281 30.816406 53.191406 30.816406 Z M 53.191406 30.816406 " fill-opacity="1" fill-rule="nonzero"/><path fill="#121012" d="M 50.691406 30.148438 C 50.546875 30.378906 50.359375 30.558594 50.117188 30.683594 C 49.878906 30.808594 49.625 30.867188 49.355469 30.855469 C 49.289062 30.855469 49.230469 30.855469 49.167969 30.835938 C 49.324219 32.15625 49.453125 33.484375 49.519531 34.84375 C 49.769531 34.636719 50.414062 34.214844 51.070312 34.5 C 51.050781 33.492188 51.015625 32.480469 50.933594 31.851562 C 50.851562 31.292969 50.769531 30.722656 50.691406 30.148438 Z M 50.691406 30.148438 " fill-opacity="1" fill-rule="nonzero"/><path fill="#262227" d="M 53.992188 33.179688 C 53.65625 31.910156 52.386719 31.335938 51.191406 31.3125 C 50.101562 31.335938 48.832031 31.910156 48.492188 33.179688 C 47.832031 35.679688 49.558594 36.46875 49.558594 36.46875 C 49.558594 35.617188 49.507812 34.882812 49.507812 34.882812 C 49.242188 34.515625 49.433594 33.097656 51.191406 33.054688 C 53.050781 33.097656 53.246094 34.515625 52.976562 34.882812 C 52.976562 34.882812 52.9375 35.605469 52.925781 36.46875 C 52.925781 36.46875 54.667969 35.679688 53.992188 33.179688 Z M 53.992188 33.179688 " fill-opacity="1" fill-rule="nonzero"/><path fill="#121012" d="M 48.550781 35.347656 C 48.753906 35.839844 49.089844 36.214844 49.554688 36.46875 C 49.554688 35.617188 49.503906 34.882812 49.503906 34.882812 C 49.394531 34.691406 49.367188 34.488281 49.425781 34.273438 C 49.308594 34.773438 49.015625 35.132812 48.550781 35.347656 Z M 48.550781 35.347656 " fill-opacity="1" fill-rule="nonzero"/><path fill="#121012" d="M 53.070312 34.417969 C 53.09375 34.582031 53.0625 34.738281 52.976562 34.882812 C 52.976562 34.882812 52.9375 35.605469 52.925781 36.46875 C 53.398438 36.210938 53.734375 35.832031 53.933594 35.332031 C 53.703125 35.292969 53.507812 35.191406 53.347656 35.019531 C 53.1875 34.851562 53.09375 34.648438 53.070312 34.417969 Z M 53.070312 34.417969 " fill-opacity="1" fill-rule="nonzero"/><path fill="#4f120d" d="M 34.5 53.457031 C 35.242188 53.4375 35.953125 53.578125 36.628906 53.882812 C 37.191406 54.140625 37.632812 54.539062 37.953125 55.070312 C 38.273438 55.632812 38.425781 56.234375 38.410156 56.882812 C 38.410156 57.308594 38.347656 57.726562 38.222656 58.132812 C 38.097656 58.550781 37.902344 58.929688 37.628906 59.269531 C 37.332031 59.632812 36.96875 59.90625 36.539062 60.089844 C 36 60.316406 35.441406 60.417969 34.859375 60.402344 L 33.425781 60.402344 L 33.425781 63.617188 L 31.4375 63.617188 L 31.4375 53.457031 Z M 34.847656 58.457031 C 35.113281 58.46875 35.367188 58.414062 35.605469 58.296875 C 35.796875 58.203125 35.957031 58.070312 36.082031 57.898438 C 36.289062 57.609375 36.394531 57.289062 36.40625 56.9375 C 36.402344 56.800781 36.386719 56.664062 36.359375 56.53125 C 36.324219 56.347656 36.253906 56.175781 36.15625 56.015625 C 36.046875 55.824219 35.890625 55.675781 35.695312 55.570312 C 35.433594 55.4375 35.15625 55.378906 34.859375 55.390625 L 33.425781 55.390625 L 33.425781 58.457031 Z M 34.847656 58.457031 " fill-opacity="1" fill-rule="nonzero"/><path fill="#4f120d" d="M 43.289062 53.457031 C 43.871094 53.449219 44.4375 53.53125 44.992188 53.699219 C 45.460938 53.839844 45.875 54.074219 46.242188 54.390625 C 46.582031 54.691406 46.835938 55.050781 47.011719 55.46875 C 47.191406 55.925781 47.28125 56.398438 47.273438 56.890625 C 47.269531 57.3125 47.207031 57.726562 47.085938 58.132812 C 46.960938 58.554688 46.757812 58.933594 46.476562 59.269531 C 46.171875 59.632812 45.800781 59.90625 45.367188 60.089844 C 44.820312 60.316406 44.25 60.417969 43.660156 60.402344 L 42.242188 60.402344 L 42.242188 63.632812 L 40.210938 63.632812 L 40.210938 53.457031 Z M 43.636719 58.457031 C 43.902344 58.464844 44.152344 58.417969 44.394531 58.304688 C 44.582031 58.214844 44.742188 58.085938 44.871094 57.921875 C 44.980469 57.769531 45.0625 57.605469 45.117188 57.429688 C 45.167969 57.273438 45.191406 57.113281 45.195312 56.953125 C 45.191406 56.808594 45.175781 56.671875 45.148438 56.53125 C 45.109375 56.347656 45.042969 56.175781 44.945312 56.015625 C 44.832031 55.824219 44.675781 55.675781 44.480469 55.570312 C 44.21875 55.4375 43.941406 55.378906 43.648438 55.390625 L 42.226562 55.390625 L 42.226562 58.457031 Z M 45.511719 59.699219 L 48.023438 63.621094 L 45.691406 63.621094 L 43.136719 59.753906 Z M 45.511719 59.699219 " fill-opacity="1" fill-rule="nonzero"/><path fill="#4f120d" d="M 49.683594 53.457031 L 51.683594 53.457031 L 51.683594 63.621094 L 49.683594 63.621094 Z M 49.683594 53.457031 " fill-opacity="1" fill-rule="nonzero"/><path fill="#4f120d" d="M 61.929688 62.78125 C 61.738281 62.921875 61.53125 63.046875 61.316406 63.152344 C 60.964844 63.328125 60.597656 63.464844 60.21875 63.566406 C 59.746094 63.691406 59.269531 63.746094 58.78125 63.730469 C 58.039062 63.726562 57.324219 63.582031 56.636719 63.296875 C 56.023438 63.042969 55.488281 62.671875 55.035156 62.1875 C 54.59375 61.714844 54.257812 61.175781 54.03125 60.570312 C 53.796875 59.941406 53.683594 59.292969 53.6875 58.625 C 53.679688 57.894531 53.796875 57.1875 54.039062 56.496094 C 54.257812 55.871094 54.597656 55.3125 55.046875 54.828125 C 55.492188 54.351562 56.011719 53.984375 56.613281 53.734375 C 57.257812 53.46875 57.929688 53.339844 58.628906 53.347656 C 59.25 53.339844 59.851562 53.433594 60.4375 53.632812 C 60.890625 53.78125 61.316406 53.980469 61.722656 54.226562 L 60.9375 56.117188 C 60.648438 55.90625 60.34375 55.722656 60.019531 55.570312 C 59.601562 55.371094 59.160156 55.277344 58.699219 55.289062 C 58.3125 55.289062 57.941406 55.367188 57.585938 55.527344 C 57.226562 55.691406 56.914062 55.921875 56.648438 56.214844 C 56.371094 56.515625 56.15625 56.859375 56.003906 57.242188 C 55.84375 57.652344 55.769531 58.078125 55.773438 58.519531 C 55.765625 58.976562 55.839844 59.421875 55.984375 59.855469 C 56.117188 60.246094 56.320312 60.59375 56.597656 60.898438 C 56.871094 61.195312 57.191406 61.417969 57.558594 61.570312 C 57.964844 61.734375 58.386719 61.8125 58.824219 61.804688 C 59.308594 61.820312 59.773438 61.730469 60.21875 61.542969 C 60.542969 61.40625 60.835938 61.222656 61.101562 60.992188 Z M 61.929688 62.78125 " fill-opacity="1" fill-rule="nonzero"/><path fill="#4f120d" d="M 63.933594 53.457031 L 70.859375 53.457031 L 70.859375 55.390625 L 65.933594 55.390625 L 65.933594 57.574219 L 70.289062 57.574219 L 70.289062 59.507812 L 65.933594 59.507812 L 65.933594 61.703125 L 71.046875 61.703125 L 71.046875 63.636719 L 63.933594 63.636719 Z M 63.933594 53.457031 " fill-opacity="1" fill-rule="nonzero"/><path stroke-linecap="butt" transform="matrix(0.284034, 0, 0, 0.284034, -25.429671, -4.629742)" fill="none" stroke-linejoin="miter" d="M 391.912813 266.256695 L 147.966063 266.256695 Z M 391.912813 266.256695 " stroke="#ffffff" stroke-width="3" stroke-opacity="1" stroke-miterlimit="10"/><g transform="matrix(1, 0, 0, 1, 28, 76)"><g clip-path="url(#dc47120128)"><g fill="#4f120d" fill-opacity="1"><g transform="translate(0.581004, 25.609921)"><g><path d="M 10.640625 -16.90625 C 12.453125 -16.90625 13.972656 -16.707031 15.203125 -16.3125 C 16.441406 -15.914062 17.363281 -15.390625 17.96875 -14.734375 C 18.582031 -14.085938 18.890625 -13.382812 18.890625 -12.625 C 18.890625 -12.351562 18.859375 -12.109375 18.796875 -11.890625 C 18.554688 -11.035156 18.039062 -10.378906 17.25 -9.921875 C 16.46875 -9.472656 15.378906 -9.179688 13.984375 -9.046875 C 14.984375 -8.453125 15.769531 -7.835938 16.34375 -7.203125 C 16.925781 -6.566406 17.21875 -5.84375 17.21875 -5.03125 C 17.21875 -4.789062 17.175781 -4.484375 17.09375 -4.109375 C 16.71875 -2.742188 15.84375 -1.679688 14.46875 -0.921875 C 13.101562 -0.171875 11.046875 0.203125 8.296875 0.203125 C 6.660156 0.203125 5.25 0.03125 4.0625 -0.3125 C 2.875 -0.664062 1.972656 -1.160156 1.359375 -1.796875 C 0.742188 -2.429688 0.4375 -3.171875 0.4375 -4.015625 C 0.4375 -4.347656 0.484375 -4.691406 0.578125 -5.046875 C 1.054688 -6.796875 2.828125 -7.941406 5.890625 -8.484375 C 4.960938 -9.160156 4.238281 -9.816406 3.71875 -10.453125 C 3.207031 -11.097656 2.953125 -11.8125 2.953125 -12.59375 C 2.953125 -12.8125 2.992188 -13.09375 3.078125 -13.4375 C 3.398438 -14.582031 4.191406 -15.445312 5.453125 -16.03125 C 6.722656 -16.613281 8.453125 -16.90625 10.640625 -16.90625 Z M 9.0625 -13.5625 C 9.007812 -13.40625 8.984375 -13.253906 8.984375 -13.109375 C 8.984375 -12.660156 9.164062 -12.242188 9.53125 -11.859375 C 9.894531 -11.484375 10.425781 -11.085938 11.125 -10.671875 C 11.664062 -11.085938 12.054688 -11.703125 12.296875 -12.515625 C 12.359375 -12.722656 12.390625 -12.9375 12.390625 -13.15625 C 12.390625 -13.625 12.226562 -14 11.90625 -14.28125 C 11.582031 -14.5625 11.191406 -14.703125 10.734375 -14.703125 C 10.285156 -14.703125 9.925781 -14.609375 9.65625 -14.421875 C 9.382812 -14.234375 9.1875 -13.945312 9.0625 -13.5625 Z M 10.15625 -3.734375 C 10.1875 -3.835938 10.203125 -3.984375 10.203125 -4.171875 C 10.203125 -4.617188 10.03125 -5.054688 9.6875 -5.484375 C 9.351562 -5.910156 8.867188 -6.359375 8.234375 -6.828125 C 7.347656 -6.335938 6.769531 -5.609375 6.5 -4.640625 C 6.4375 -4.367188 6.40625 -4.109375 6.40625 -3.859375 C 6.40625 -3.296875 6.5625 -2.867188 6.875 -2.578125 C 7.195312 -2.296875 7.601562 -2.15625 8.09375 -2.15625 C 9.175781 -2.15625 9.863281 -2.679688 10.15625 -3.734375 Z M 10.15625 -3.734375 "/></g></g></g><g fill="#4f120d" fill-opacity="1"><g transform="translate(16.951346, 25.609921)"><g><path d="M 16.9375 -17.140625 C 17.207031 -17.140625 17.460938 -16.941406 17.703125 -16.546875 C 17.953125 -16.148438 18.078125 -15.628906 18.078125 -14.984375 C 18.078125 -14.554688 18.035156 -14.175781 17.953125 -13.84375 C 17.710938 -12.757812 17.257812 -11.960938 16.59375 -11.453125 C 15.925781 -10.941406 14.957031 -10.6875 13.6875 -10.6875 C 13.039062 -10.6875 12.421875 -10.765625 11.828125 -10.921875 C 11.234375 -11.085938 10.523438 -11.320312 9.703125 -11.625 C 9.128906 -11.84375 8.644531 -12.007812 8.25 -12.125 C 7.863281 -12.238281 7.5 -12.296875 7.15625 -12.296875 C 6.601562 -12.296875 6.222656 -11.960938 6.015625 -11.296875 L 5.390625 -8.984375 C 6.773438 -9.546875 8.265625 -9.828125 9.859375 -9.828125 C 11.023438 -9.828125 12.109375 -9.65625 13.109375 -9.3125 C 14.117188 -8.976562 14.929688 -8.476562 15.546875 -7.8125 C 16.171875 -7.144531 16.484375 -6.34375 16.484375 -5.40625 C 16.484375 -5.132812 16.441406 -4.804688 16.359375 -4.421875 C 16.035156 -3.035156 15.140625 -1.925781 13.671875 -1.09375 C 12.210938 -0.257812 10.269531 0.15625 7.84375 0.15625 C 5.96875 0.15625 4.441406 -0.0078125 3.265625 -0.34375 C 2.085938 -0.6875 1.234375 -1.125 0.703125 -1.65625 C 0.179688 -2.195312 -0.078125 -2.785156 -0.078125 -3.421875 C -0.078125 -3.691406 -0.0390625 -3.941406 0.03125 -4.171875 C 0.195312 -4.742188 0.507812 -5.1875 0.96875 -5.5 C 1.4375 -5.8125 2.046875 -5.96875 2.796875 -5.96875 C 3.617188 -5.96875 4.265625 -5.769531 4.734375 -5.375 C 5.203125 -4.988281 5.4375 -4.484375 5.4375 -3.859375 C 5.4375 -3.347656 5.265625 -2.796875 4.921875 -2.203125 C 5.398438 -2.117188 5.800781 -2.078125 6.125 -2.078125 C 7.03125 -2.078125 7.769531 -2.300781 8.34375 -2.75 C 8.925781 -3.195312 9.328125 -3.8125 9.546875 -4.59375 C 9.648438 -4.988281 9.703125 -5.328125 9.703125 -5.609375 C 9.703125 -6.179688 9.519531 -6.625 9.15625 -6.9375 C 8.789062 -7.257812 8.296875 -7.421875 7.671875 -7.421875 C 7.210938 -7.421875 6.6875 -7.328125 6.09375 -7.140625 C 5.445312 -6.929688 4.851562 -6.828125 4.3125 -6.828125 L 3.484375 -6.828125 C 2.859375 -6.828125 2.546875 -7.109375 2.546875 -7.671875 C 2.546875 -7.835938 2.585938 -8.070312 2.671875 -8.375 L 4.390625 -14.25 C 4.609375 -15.007812 4.941406 -15.53125 5.390625 -15.8125 C 5.835938 -16.101562 6.488281 -16.25 7.34375 -16.25 C 7.976562 -16.25 8.695312 -16.222656 9.5 -16.171875 C 9.800781 -16.160156 10.25 -16.144531 10.84375 -16.125 C 11.4375 -16.101562 11.953125 -16.09375 12.390625 -16.09375 C 13.453125 -16.09375 14.257812 -16.171875 14.8125 -16.328125 C 15.363281 -16.484375 15.859375 -16.675781 16.296875 -16.90625 C 16.609375 -17.0625 16.820312 -17.140625 16.9375 -17.140625 Z M 16.9375 -17.140625 "/></g></g></g><g fill="#4f120d" fill-opacity="1"><g transform="translate(32.204868, 25.609921)"><g><path d="M 11.78125 -16.96875 C 16.40625 -16.96875 18.71875 -15.195312 18.71875 -11.65625 C 18.71875 -10.675781 18.546875 -9.59375 18.203125 -8.40625 C 17.335938 -5.351562 16.03125 -3.160156 14.28125 -1.828125 C 12.53125 -0.503906 10.3125 0.15625 7.625 0.15625 C 3.019531 0.15625 0.71875 -1.601562 0.71875 -5.125 C 0.71875 -6.125 0.882812 -7.21875 1.21875 -8.40625 C 2.082031 -11.445312 3.390625 -13.632812 5.140625 -14.96875 C 6.890625 -16.300781 9.101562 -16.96875 11.78125 -16.96875 Z M 11.5 -14.625 C 11.113281 -14.625 10.742188 -14.453125 10.390625 -14.109375 C 10.046875 -13.773438 9.679688 -13.15625 9.296875 -12.25 C 8.921875 -11.34375 8.503906 -10.0625 8.046875 -8.40625 C 7.398438 -6.050781 7.078125 -4.390625 7.078125 -3.421875 C 7.078125 -2.953125 7.148438 -2.625 7.296875 -2.4375 C 7.441406 -2.25 7.660156 -2.15625 7.953125 -2.15625 C 8.335938 -2.15625 8.703125 -2.320312 9.046875 -2.65625 C 9.398438 -3 9.765625 -3.628906 10.140625 -4.546875 C 10.523438 -5.460938 10.9375 -6.75 11.375 -8.40625 C 12.03125 -10.820312 12.359375 -12.476562 12.359375 -13.375 C 12.359375 -13.832031 12.285156 -14.15625 12.140625 -14.34375 C 12.003906 -14.53125 11.789062 -14.625 11.5 -14.625 Z M 11.5 -14.625 "/></g></g></g></g></g><g clip-path="url(#82d4b2dff8)"><path fill="#4f120d" d="M 94.882812 108.066406 L 95.210938 109.542969 C 95.214844 109.566406 95.21875 109.589844 95.21875 109.617188 C 95.21875 109.667969 95.203125 109.714844 95.179688 109.753906 C 95.144531 109.816406 95.089844 109.863281 95.023438 109.886719 L 94.976562 109.898438 C 94.949219 109.910156 94.914062 109.921875 94.878906 109.929688 C 94.835938 109.941406 94.789062 109.953125 94.730469 109.972656 C 94.667969 109.992188 94.601562 110.011719 94.527344 110.027344 C 94.453125 110.039062 94.375 110.054688 94.292969 110.074219 C 94.207031 110.089844 94.117188 110.105469 94.011719 110.121094 C 93.910156 110.132812 93.804688 110.148438 93.703125 110.164062 C 93.597656 110.175781 93.484375 110.1875 93.363281 110.191406 C 93.242188 110.195312 93.121094 110.199219 93.003906 110.199219 C 92.96875 110.199219 92.925781 110.203125 92.882812 110.203125 C 91.492188 110.203125 90.214844 109.746094 89.179688 108.972656 L 89.199219 108.984375 C 88.132812 108.183594 87.347656 107.058594 86.992188 105.757812 L 86.984375 105.714844 L 86.097656 105.714844 C 85.933594 105.710938 85.804688 105.582031 85.800781 105.417969 L 85.800781 104.367188 C 85.804688 104.203125 85.933594 104.070312 86.097656 104.066406 L 86.710938 104.066406 C 86.699219 103.714844 86.703125 103.386719 86.722656 103.089844 L 86.097656 103.089844 C 86.09375 103.089844 86.089844 103.089844 86.085938 103.089844 C 85.929688 103.089844 85.800781 102.960938 85.800781 102.804688 C 85.800781 102.800781 85.800781 102.796875 85.800781 102.792969 L 85.800781 101.730469 C 85.800781 101.726562 85.800781 101.722656 85.800781 101.71875 C 85.800781 101.5625 85.929688 101.433594 86.085938 101.433594 L 87.011719 101.433594 C 87.417969 100.132812 88.214844 99.054688 89.257812 98.300781 L 89.277344 98.289062 C 90.285156 97.542969 91.558594 97.09375 92.933594 97.09375 C 92.957031 97.09375 92.980469 97.09375 93.003906 97.09375 L 93 97.09375 L 93.035156 97.09375 C 93.664062 97.09375 94.273438 97.171875 94.859375 97.320312 L 94.804688 97.308594 C 94.882812 97.332031 94.949219 97.382812 94.992188 97.445312 L 94.992188 97.449219 C 95.015625 97.488281 95.03125 97.539062 95.03125 97.59375 C 95.03125 97.621094 95.027344 97.648438 95.019531 97.671875 L 94.621094 99.148438 C 94.601562 99.226562 94.554688 99.292969 94.488281 99.332031 C 94.449219 99.355469 94.402344 99.367188 94.351562 99.367188 C 94.320312 99.367188 94.292969 99.363281 94.261719 99.355469 L 94.265625 99.355469 L 94.226562 99.34375 C 94.203125 99.339844 94.167969 99.332031 94.121094 99.320312 L 93.957031 99.289062 L 93.75 99.257812 L 93.507812 99.230469 L 93.238281 99.207031 L 92.964844 99.195312 C 92.945312 99.195312 92.925781 99.195312 92.910156 99.195312 C 92.148438 99.195312 91.441406 99.417969 90.84375 99.800781 L 90.859375 99.792969 C 90.246094 100.1875 89.765625 100.746094 89.472656 101.40625 L 89.460938 101.429688 L 93.816406 101.429688 C 93.984375 101.433594 94.121094 101.566406 94.121094 101.734375 C 94.121094 101.753906 94.117188 101.769531 94.117188 101.785156 L 93.894531 102.84375 C 93.878906 102.980469 93.761719 103.085938 93.621094 103.085938 C 93.613281 103.085938 93.601562 103.085938 93.59375 103.085938 L 89.050781 103.085938 C 89.042969 103.230469 89.039062 103.402344 89.039062 103.574219 C 89.039062 103.746094 89.042969 103.917969 89.054688 104.085938 L 89.050781 104.0625 L 93.328125 104.0625 C 93.421875 104.0625 93.503906 104.105469 93.554688 104.175781 L 93.558594 104.175781 C 93.597656 104.226562 93.621094 104.289062 93.621094 104.359375 C 93.621094 104.382812 93.617188 104.40625 93.613281 104.429688 L 93.613281 104.425781 L 93.390625 105.46875 C 93.363281 105.605469 93.246094 105.707031 93.101562 105.710938 L 89.503906 105.710938 C 90.066406 107.105469 91.414062 108.074219 92.984375 108.074219 L 93.023438 108.074219 L 93.019531 108.074219 C 93.132812 108.074219 93.242188 108.070312 93.355469 108.058594 C 93.46875 108.050781 93.570312 108.039062 93.667969 108.027344 C 93.761719 108.015625 93.855469 108 93.941406 107.984375 C 94.027344 107.964844 94.105469 107.949219 94.171875 107.9375 L 94.34375 107.890625 L 94.453125 107.863281 L 94.5 107.847656 C 94.53125 107.835938 94.566406 107.828125 94.601562 107.828125 C 94.65625 107.828125 94.703125 107.839844 94.742188 107.867188 C 94.816406 107.90625 94.867188 107.980469 94.882812 108.0625 Z M 94.882812 108.066406 " fill-opacity="1" fill-rule="nonzero"/></g></g></g></g></svg>