<svg xmlns="http://www.w3.org/2000/svg" xmlns:xlink="http://www.w3.org/1999/xlink" width="125" zoomAndPan="magnify" viewBox="0 0 93.75 30.000001" height="40" preserveAspectRatio="xMidYMid meet" version="1.0"><defs><clipPath id="5b2efd3063"><path d="M 1.390625 0 L 89.941406 0 L 89.941406 28.304688 L 1.390625 28.304688 Z M 1.390625 0 " clip-rule="nonzero"/></clipPath></defs><g clip-path="url(#5b2efd3063)"><path fill="#4d0d0a" d="M 21.890625 9.40625 C 21.445312 9.40625 21.050781 9.714844 20.933594 10.140625 L 17.917969 10.140625 L 16.289062 7.347656 L 18.984375 7.347656 C 19.121094 7.742188 19.496094 8.019531 19.921875 8.019531 C 20.464844 8.019531 20.910156 7.574219 20.910156 7.03125 C 20.910156 6.488281 20.464844 6.039062 19.921875 6.039062 C 19.472656 6.039062 19.078125 6.347656 18.960938 6.773438 L 15.949219 6.773438 L 14.320312 3.972656 L 17.011719 3.972656 C 17.152344 4.367188 17.523438 4.644531 17.949219 4.644531 C 18.492188 4.644531 18.941406 4.195312 18.941406 3.652344 C 18.941406 3.109375 18.492188 2.664062 17.949219 2.664062 C 17.503906 2.664062 17.109375 2.972656 16.992188 3.398438 L 13.976562 3.398438 L 12.007812 0 L 10.109375 3.386719 L 7.097656 3.386719 C 6.980469 2.960938 6.585938 2.652344 6.136719 2.652344 C 5.59375 2.652344 5.148438 3.101562 5.148438 3.644531 C 5.148438 4.1875 5.59375 4.632812 6.136719 4.632812 C 6.5625 4.632812 6.949219 4.355469 7.074219 3.960938 L 9.792969 3.960938 L 8.226562 6.765625 L 5.234375 6.765625 C 5.117188 6.335938 4.722656 6.027344 4.273438 6.027344 C 3.730469 6.027344 3.285156 6.476562 3.285156 7.019531 C 3.285156 7.5625 3.730469 8.011719 4.273438 8.011719 C 4.699219 8.011719 5.082031 7.734375 5.210938 7.339844 L 7.894531 7.339844 L 6.339844 10.140625 L 3.378906 10.140625 C 3.261719 9.714844 2.867188 9.40625 2.421875 9.40625 C 1.878906 9.40625 1.429688 9.851562 1.429688 10.394531 C 1.429688 10.9375 1.878906 11.386719 2.421875 11.386719 C 2.847656 11.386719 3.230469 11.109375 3.359375 10.714844 L 6.011719 10.714844 L 5.390625 11.824219 L 7.289062 13.921875 L 8.277344 12.355469 L 9.695312 13.890625 L 10.8125 12.453125 L 11.867188 13.898438 L 13.359375 12.496094 L 14.457031 14.015625 L 15.949219 12.578125 L 17.035156 13.984375 L 19.144531 12.226562 L 18.257812 10.703125 L 20.953125 10.703125 C 21.09375 11.097656 21.464844 11.375 21.890625 11.375 C 22.433594 11.375 22.882812 10.929688 22.882812 10.386719 C 22.882812 9.851562 22.433594 9.40625 21.890625 9.40625 Z M 14.53125 13.144531 L 13.433594 11.632812 L 11.941406 13.039062 L 10.824219 11.492188 L 9.652344 12.996094 L 8.855469 12.121094 L 12.019531 6.59375 L 15.425781 12.28125 Z M 21.890625 17.011719 C 21.464844 17.011719 21.082031 17.289062 20.953125 17.683594 L 18.257812 17.683594 L 19.144531 16.160156 L 17.035156 14.402344 L 15.949219 15.808594 L 14.457031 14.367188 L 13.359375 15.902344 L 11.867188 14.496094 L 10.8125 15.957031 L 9.695312 14.519531 L 8.277344 16.050781 L 7.289062 14.484375 L 5.390625 16.574219 L 6.011719 17.683594 L 3.359375 17.683594 C 3.21875 17.289062 2.847656 17.011719 2.421875 17.011719 C 1.878906 17.011719 1.429688 17.457031 1.429688 18 C 1.429688 18.542969 1.878906 18.992188 2.421875 18.992188 C 2.867188 18.992188 3.261719 18.683594 3.378906 18.257812 L 6.339844 18.257812 L 7.90625 21.058594 L 5.222656 21.058594 C 5.082031 20.664062 4.710938 20.386719 4.285156 20.386719 C 3.742188 20.386719 3.292969 20.835938 3.292969 21.378906 C 3.292969 21.921875 3.742188 22.367188 4.285156 22.367188 C 4.730469 22.367188 5.125 22.058594 5.242188 21.632812 L 8.238281 21.632812 L 9.800781 24.433594 L 7.074219 24.433594 C 6.9375 24.039062 6.5625 23.765625 6.136719 23.765625 C 5.59375 23.765625 5.148438 24.210938 5.148438 24.753906 C 5.148438 25.296875 5.59375 25.746094 6.136719 25.746094 C 6.585938 25.746094 6.980469 25.4375 7.097656 25.011719 L 10.121094 25.011719 L 12.019531 28.398438 L 13.988281 25.011719 L 17.003906 25.011719 C 17.121094 25.4375 17.515625 25.746094 17.960938 25.746094 C 18.503906 25.746094 18.953125 25.296875 18.953125 24.753906 C 18.953125 24.210938 18.503906 23.765625 17.960938 23.765625 C 17.535156 23.765625 17.152344 24.039062 17.023438 24.433594 L 14.328125 24.433594 L 15.957031 21.632812 L 18.972656 21.632812 C 19.089844 22.058594 19.484375 22.367188 19.933594 22.367188 C 20.476562 22.367188 20.921875 21.921875 20.921875 21.378906 C 20.921875 20.835938 20.476562 20.386719 19.933594 20.386719 C 19.503906 20.386719 19.121094 20.664062 18.996094 21.058594 L 16.300781 21.058594 L 17.929688 18.257812 L 20.945312 18.257812 C 21.0625 18.683594 21.453125 18.992188 21.902344 18.992188 C 22.445312 18.992188 22.894531 18.542969 22.894531 18 C 22.894531 17.457031 22.433594 17.011719 21.890625 17.011719 Z M 12.007812 21.804688 L 8.84375 16.277344 L 9.640625 15.402344 L 10.8125 16.902344 L 11.933594 15.359375 L 13.421875 16.765625 L 14.519531 15.253906 L 15.414062 16.105469 Z M 44.175781 17.011719 C 43.75 17.011719 43.367188 17.289062 43.238281 17.683594 L 40.542969 17.683594 L 41.425781 16.160156 L 39.316406 14.402344 L 38.230469 15.808594 L 36.738281 14.367188 L 35.644531 15.890625 L 34.152344 14.484375 L 33.097656 15.945312 L 31.980469 14.507812 L 30.5625 16.042969 L 29.570312 14.476562 L 27.675781 16.5625 L 28.292969 17.671875 L 25.640625 17.671875 C 25.503906 17.277344 25.128906 17 24.703125 17 C 24.160156 17 23.714844 17.449219 23.714844 17.992188 C 23.714844 18.535156 24.160156 18.980469 24.703125 18.980469 C 25.152344 18.980469 25.546875 18.671875 25.664062 18.246094 L 28.625 18.246094 L 30.1875 21.046875 L 27.503906 21.046875 C 27.367188 20.652344 26.992188 20.375 26.566406 20.375 C 26.023438 20.375 25.578125 20.824219 25.578125 21.367188 C 25.578125 21.910156 26.023438 22.359375 26.566406 22.359375 C 27.015625 22.359375 27.410156 22.046875 27.527344 21.621094 L 30.507812 21.621094 L 32.074219 24.425781 L 29.359375 24.425781 C 29.21875 24.03125 28.847656 23.753906 28.421875 23.753906 C 27.878906 23.753906 27.429688 24.199219 27.429688 24.742188 C 27.429688 25.285156 27.878906 25.734375 28.421875 25.734375 C 28.867188 25.734375 29.261719 25.425781 29.378906 25 L 32.40625 25 L 34.300781 28.386719 L 36.269531 25 L 39.285156 25 C 39.402344 25.425781 39.796875 25.734375 40.246094 25.734375 C 40.789062 25.734375 41.234375 25.285156 41.234375 24.742188 C 41.234375 24.199219 40.789062 23.753906 40.246094 23.753906 C 39.820312 23.753906 39.433594 24.03125 39.308594 24.425781 L 36.613281 24.425781 L 38.242188 21.621094 L 41.257812 21.621094 C 41.375 22.046875 41.769531 22.359375 42.214844 22.359375 C 42.757812 22.359375 43.207031 21.910156 43.207031 21.367188 C 43.207031 20.824219 42.757812 20.375 42.214844 20.375 C 41.789062 20.375 41.40625 20.652344 41.277344 21.046875 L 38.582031 21.046875 L 40.210938 18.246094 L 43.226562 18.246094 C 43.34375 18.671875 43.738281 18.980469 44.1875 18.980469 C 44.730469 18.980469 45.175781 18.535156 45.175781 17.992188 C 45.175781 17.449219 44.71875 17.011719 44.175781 17.011719 Z M 34.289062 21.804688 L 31.125 16.277344 L 31.925781 15.402344 L 33.097656 16.902344 L 34.214844 15.359375 L 35.707031 16.765625 L 36.804688 15.253906 L 37.699219 16.105469 Z M 44.175781 9.40625 C 43.726562 9.40625 43.332031 9.714844 43.214844 10.140625 L 40.203125 10.140625 L 38.570312 7.347656 L 41.265625 7.347656 C 41.40625 7.742188 41.777344 8.019531 42.203125 8.019531 C 42.746094 8.019531 43.195312 7.574219 43.195312 7.03125 C 43.195312 6.488281 42.746094 6.039062 42.203125 6.039062 C 41.757812 6.039062 41.363281 6.347656 41.246094 6.773438 L 38.230469 6.773438 L 36.601562 3.972656 L 39.296875 3.972656 C 39.433594 4.367188 39.808594 4.644531 40.234375 4.644531 C 40.777344 4.644531 41.222656 4.195312 41.222656 3.652344 C 41.222656 3.109375 40.777344 2.664062 40.234375 2.664062 C 39.785156 2.664062 39.390625 2.972656 39.273438 3.398438 L 36.261719 3.398438 L 34.289062 0 L 32.394531 3.386719 L 29.371094 3.386719 C 29.253906 2.960938 28.859375 2.652344 28.410156 2.652344 C 27.867188 2.652344 27.421875 3.101562 27.421875 3.644531 C 27.421875 4.1875 27.867188 4.632812 28.410156 4.632812 C 28.835938 4.632812 29.21875 4.355469 29.347656 3.960938 L 32.0625 3.960938 L 30.507812 6.765625 L 27.515625 6.765625 C 27.398438 6.335938 27.003906 6.027344 26.558594 6.027344 C 26.015625 6.027344 25.566406 6.476562 25.566406 7.019531 C 25.566406 7.5625 26.015625 8.011719 26.558594 8.011719 C 26.984375 8.011719 27.367188 7.734375 27.496094 7.339844 L 30.1875 7.339844 L 28.625 10.140625 L 25.664062 10.140625 C 25.546875 9.714844 25.152344 9.40625 24.703125 9.40625 C 24.160156 9.40625 23.714844 9.851562 23.714844 10.394531 C 23.714844 10.9375 24.160156 11.386719 24.703125 11.386719 C 25.128906 11.386719 25.511719 11.109375 25.640625 10.714844 L 28.292969 10.714844 L 27.675781 11.824219 L 29.570312 13.910156 L 30.5625 12.34375 L 31.980469 13.878906 L 33.097656 12.441406 L 34.152344 13.890625 L 35.644531 12.484375 L 36.738281 14.007812 L 38.230469 12.570312 L 39.316406 13.976562 L 41.425781 12.21875 L 40.542969 10.695312 L 43.238281 10.695312 C 43.375 11.089844 43.75 11.367188 44.175781 11.367188 C 44.71875 11.367188 45.164062 10.917969 45.164062 10.375 C 45.164062 9.851562 44.71875 9.40625 44.175781 9.40625 Z M 36.816406 13.144531 L 35.71875 11.632812 L 34.226562 13.039062 L 33.109375 11.492188 L 31.9375 12.996094 L 31.136719 12.121094 L 34.300781 6.59375 L 37.710938 12.28125 Z M 66.457031 17.011719 C 66.03125 17.011719 65.648438 17.289062 65.519531 17.683594 L 62.824219 17.683594 L 63.710938 16.160156 L 61.601562 14.402344 L 60.515625 15.808594 L 59.023438 14.367188 L 57.925781 15.890625 L 56.433594 14.484375 L 55.378906 15.945312 L 54.261719 14.519531 L 52.84375 16.050781 L 51.855469 14.484375 L 49.957031 16.574219 L 50.578125 17.683594 L 47.925781 17.683594 C 47.785156 17.289062 47.414062 17.011719 46.988281 17.011719 C 46.445312 17.011719 45.996094 17.457031 45.996094 18 C 45.996094 18.542969 46.445312 18.992188 46.988281 18.992188 C 47.433594 18.992188 47.828125 18.683594 47.945312 18.257812 L 50.90625 18.257812 L 52.472656 21.058594 L 49.789062 21.058594 C 49.648438 20.664062 49.277344 20.386719 48.851562 20.386719 C 48.308594 20.386719 47.859375 20.835938 47.859375 21.378906 C 47.859375 21.921875 48.308594 22.367188 48.851562 22.367188 C 49.296875 22.367188 49.691406 22.058594 49.808594 21.632812 L 52.804688 21.632812 L 54.367188 24.433594 L 51.652344 24.433594 C 51.515625 24.039062 51.140625 23.765625 50.714844 23.765625 C 50.171875 23.765625 49.722656 24.210938 49.722656 24.753906 C 49.722656 25.296875 50.171875 25.746094 50.714844 25.746094 C 51.164062 25.746094 51.554688 25.4375 51.671875 25.011719 L 54.699219 25.011719 L 56.59375 28.398438 L 58.566406 25.011719 L 61.578125 25.011719 C 61.695312 25.4375 62.089844 25.746094 62.539062 25.746094 C 63.082031 25.746094 63.527344 25.296875 63.527344 24.753906 C 63.527344 24.210938 63.082031 23.765625 62.539062 23.765625 C 62.113281 23.765625 61.730469 24.039062 61.601562 24.433594 L 58.90625 24.433594 L 60.535156 21.632812 L 63.527344 21.632812 C 63.644531 22.058594 64.039062 22.367188 64.488281 22.367188 C 65.03125 22.367188 65.476562 21.921875 65.476562 21.378906 C 65.476562 20.835938 65.03125 20.386719 64.488281 20.386719 C 64.0625 20.386719 63.679688 20.664062 63.550781 21.058594 L 60.855469 21.058594 L 62.484375 18.257812 L 65.5 18.257812 C 65.617188 18.683594 66.011719 18.992188 66.457031 18.992188 C 67 18.992188 67.449219 18.542969 67.449219 18 C 67.449219 17.457031 67 17.011719 66.457031 17.011719 Z M 56.574219 21.804688 L 53.410156 16.277344 L 54.207031 15.402344 L 55.378906 16.902344 L 56.5 15.359375 L 57.988281 16.765625 L 59.085938 15.253906 L 59.980469 16.105469 Z M 66.457031 9.40625 C 66.011719 9.40625 65.617188 9.714844 65.5 10.140625 L 62.484375 10.140625 L 60.855469 7.347656 L 63.550781 7.347656 C 63.6875 7.742188 64.0625 8.019531 64.488281 8.019531 C 65.03125 8.019531 65.476562 7.574219 65.476562 7.03125 C 65.476562 6.488281 65.03125 6.039062 64.488281 6.039062 C 64.039062 6.039062 63.644531 6.347656 63.527344 6.773438 L 60.515625 6.773438 L 58.886719 3.972656 L 61.578125 3.972656 C 61.71875 4.367188 62.089844 4.644531 62.515625 4.644531 C 63.058594 4.644531 63.507812 4.195312 63.507812 3.652344 C 63.507812 3.109375 63.058594 2.664062 62.515625 2.664062 C 62.070312 2.664062 61.675781 2.972656 61.558594 3.398438 L 58.542969 3.398438 L 56.574219 0 L 54.675781 3.386719 L 51.652344 3.386719 C 51.535156 2.960938 51.140625 2.652344 50.695312 2.652344 C 50.152344 2.652344 49.703125 3.101562 49.703125 3.644531 C 49.703125 4.1875 50.152344 4.632812 50.695312 4.632812 C 51.121094 4.632812 51.503906 4.355469 51.632812 3.960938 L 54.347656 3.960938 L 52.78125 6.765625 L 49.789062 6.765625 C 49.671875 6.335938 49.277344 6.027344 48.828125 6.027344 C 48.285156 6.027344 47.839844 6.476562 47.839844 7.019531 C 47.839844 7.5625 48.285156 8.011719 48.828125 8.011719 C 49.253906 8.011719 49.640625 7.734375 49.765625 7.339844 L 52.453125 7.339844 L 50.886719 10.140625 L 47.925781 10.140625 C 47.808594 9.714844 47.414062 9.40625 46.964844 9.40625 C 46.421875 9.40625 45.976562 9.851562 45.976562 10.394531 C 45.976562 10.9375 46.421875 11.386719 46.964844 11.386719 C 47.390625 11.386719 47.773438 11.109375 47.902344 10.714844 L 50.554688 10.714844 L 49.9375 11.824219 L 51.832031 13.910156 L 52.824219 12.34375 L 54.242188 13.878906 L 55.359375 12.441406 L 56.414062 13.890625 L 57.90625 12.484375 L 59.003906 14.007812 L 60.492188 12.570312 L 61.578125 13.976562 L 63.6875 12.21875 L 62.804688 10.695312 L 65.5 10.695312 C 65.636719 11.089844 66.011719 11.367188 66.4375 11.367188 C 66.980469 11.367188 67.425781 10.917969 67.425781 10.375 C 67.449219 9.851562 67 9.40625 66.457031 9.40625 Z M 59.097656 13.144531 L 58 11.632812 L 56.507812 13.039062 L 55.390625 11.492188 L 54.21875 12.996094 L 53.421875 12.121094 L 56.585938 6.59375 L 59.992188 12.28125 Z M 88.742188 17.011719 C 88.316406 17.011719 87.933594 17.289062 87.804688 17.683594 L 85.109375 17.683594 L 85.992188 16.160156 L 83.882812 14.402344 L 82.796875 15.808594 L 81.304688 14.367188 L 80.210938 15.890625 L 78.71875 14.484375 L 77.664062 15.945312 L 76.546875 14.507812 L 75.128906 16.042969 L 74.136719 14.476562 L 72.242188 16.5625 L 72.859375 17.671875 L 70.207031 17.671875 C 70.070312 17.277344 69.695312 17 69.269531 17 C 68.726562 17 68.28125 17.449219 68.28125 17.992188 C 68.28125 18.535156 68.726562 18.980469 69.269531 18.980469 C 69.71875 18.980469 70.113281 18.671875 70.230469 18.246094 L 73.191406 18.246094 L 74.753906 21.046875 L 72.070312 21.046875 C 71.933594 20.652344 71.558594 20.375 71.132812 20.375 C 70.589844 20.375 70.144531 20.824219 70.144531 21.367188 C 70.144531 21.910156 70.589844 22.359375 71.132812 22.359375 C 71.582031 22.359375 71.976562 22.046875 72.09375 21.621094 L 75.085938 21.621094 L 76.652344 24.425781 L 73.933594 24.425781 C 73.796875 24.03125 73.425781 23.753906 73 23.753906 C 72.453125 23.753906 72.007812 24.199219 72.007812 24.742188 C 72.007812 25.285156 72.453125 25.734375 73 25.734375 C 73.445312 25.734375 73.839844 25.425781 73.957031 25 L 76.980469 25 L 78.878906 28.386719 L 80.847656 25 L 83.863281 25 C 83.980469 25.425781 84.375 25.734375 84.820312 25.734375 C 85.363281 25.734375 85.8125 25.285156 85.8125 24.742188 C 85.8125 24.199219 85.363281 23.753906 84.820312 23.753906 C 84.394531 23.753906 84.011719 24.03125 83.882812 24.425781 L 81.1875 24.425781 L 82.820312 21.621094 L 85.832031 21.621094 C 85.949219 22.046875 86.34375 22.359375 86.792969 22.359375 C 87.335938 22.359375 87.78125 21.910156 87.78125 21.367188 C 87.78125 20.824219 87.335938 20.375 86.792969 20.375 C 86.367188 20.375 85.984375 20.652344 85.855469 21.046875 L 83.160156 21.046875 L 84.789062 18.246094 L 87.804688 18.246094 C 87.921875 18.671875 88.316406 18.980469 88.761719 18.980469 C 89.304688 18.980469 89.753906 18.535156 89.753906 17.992188 C 89.753906 17.449219 89.285156 17.011719 88.742188 17.011719 Z M 78.855469 21.804688 L 75.691406 16.277344 L 76.492188 15.402344 L 77.664062 16.902344 L 78.78125 15.359375 L 80.273438 16.765625 L 81.371094 15.253906 L 82.265625 16.105469 Z M 69.269531 11.398438 C 69.695312 11.398438 70.078125 11.121094 70.207031 10.726562 L 72.859375 10.726562 L 72.242188 11.832031 L 74.136719 13.921875 L 75.128906 12.355469 L 76.546875 13.890625 L 77.664062 12.453125 L 78.71875 13.898438 L 80.210938 12.496094 L 81.304688 14.015625 L 82.796875 12.578125 L 83.882812 13.984375 L 85.992188 12.226562 L 85.109375 10.703125 L 87.804688 10.703125 C 87.941406 11.097656 88.316406 11.375 88.742188 11.375 C 89.285156 11.375 89.730469 10.929688 89.730469 10.386719 C 89.730469 9.84375 89.285156 9.394531 88.742188 9.394531 C 88.292969 9.394531 87.898438 9.703125 87.78125 10.128906 L 84.769531 10.128906 L 83.136719 7.347656 L 85.832031 7.347656 C 85.972656 7.742188 86.34375 8.019531 86.769531 8.019531 C 87.3125 8.019531 87.761719 7.574219 87.761719 7.03125 C 87.761719 6.488281 87.3125 6.039062 86.769531 6.039062 C 86.324219 6.039062 85.929688 6.347656 85.8125 6.773438 L 82.796875 6.773438 L 81.167969 3.972656 L 83.863281 3.972656 C 84 4.367188 84.375 4.644531 84.800781 4.644531 C 85.34375 4.644531 85.789062 4.195312 85.789062 3.652344 C 85.789062 3.109375 85.34375 2.664062 84.800781 2.664062 C 84.351562 2.664062 83.957031 2.972656 83.839844 3.398438 L 80.828125 3.398438 L 78.855469 0 L 76.960938 3.386719 L 73.933594 3.386719 C 73.820312 2.960938 73.425781 2.652344 72.976562 2.652344 C 72.433594 2.652344 71.984375 3.101562 71.984375 3.644531 C 71.984375 4.1875 72.433594 4.632812 72.976562 4.632812 C 73.402344 4.632812 73.785156 4.355469 73.914062 3.960938 L 76.628906 3.960938 L 75.066406 6.765625 L 72.070312 6.765625 C 71.953125 6.335938 71.558594 6.027344 71.113281 6.027344 C 70.570312 6.027344 70.121094 6.476562 70.121094 7.019531 C 70.121094 7.5625 70.570312 8.011719 71.113281 8.011719 C 71.539062 8.011719 71.921875 7.734375 72.050781 7.339844 L 74.734375 7.339844 L 73.167969 10.140625 L 70.207031 10.140625 C 70.089844 9.714844 69.695312 9.40625 69.25 9.40625 C 68.707031 9.40625 68.257812 9.851562 68.257812 10.394531 C 68.28125 10.949219 68.726562 11.398438 69.269531 11.398438 Z M 78.855469 6.59375 L 82.265625 12.28125 L 81.371094 13.132812 L 80.273438 11.621094 L 78.78125 13.027344 L 77.664062 11.484375 L 76.492188 12.984375 L 75.691406 12.109375 Z M 78.855469 6.59375 " fill-opacity="1" fill-rule="nonzero"/></g></svg>