<svg xmlns="http://www.w3.org/2000/svg" xmlns:xlink="http://www.w3.org/1999/xlink" width="1154" zoomAndPan="magnify" viewBox="0 0 865.5 30.000001" height="40" preserveAspectRatio="xMidYMid meet" version="1.0"><defs><clipPath id="c3748c227e"><path d="M 13.71875 0 L 851.296875 0 L 851.296875 29.03125 L 13.71875 29.03125 Z M 13.71875 0 " clip-rule="nonzero"/></clipPath><clipPath id="9baafbed2f"><path d="M 522 9 L 851.296875 9 L 851.296875 20 L 522 20 Z M 522 9 " clip-rule="nonzero"/></clipPath><clipPath id="36a24be935"><path d="M 476 15 L 495 15 L 495 29.03125 L 476 29.03125 Z M 476 15 " clip-rule="nonzero"/></clipPath><clipPath id="bebb8a80b3"><path d="M 13.71875 9 L 343 9 L 343 20 L 13.71875 20 Z M 13.71875 9 " clip-rule="nonzero"/></clipPath><clipPath id="061c7020bd"><path d="M 369 15 L 389 15 L 389 29.03125 L 369 29.03125 Z M 369 15 " clip-rule="nonzero"/></clipPath></defs><g clip-path="url(#c3748c227e)"><path fill="#ffffff" d="M 13.71875 0 L 851.296875 0 L 851.296875 29.03125 L 13.71875 29.03125 Z M 13.71875 0 " fill-opacity="1" fill-rule="nonzero"/><path fill="#ffffff" d="M 13.71875 0 L 851.296875 0 L 851.296875 29.03125 L 13.71875 29.03125 Z M 13.71875 0 " fill-opacity="1" fill-rule="nonzero"/></g><g clip-path="url(#9baafbed2f)"><path fill="#000000" d="M 561.109375 13.273438 C 556.300781 13.273438 551.460938 13.492188 546.6875 12.902344 C 544.996094 12.683594 543.234375 12.429688 541.730469 11.625 C 541.660156 11.574219 541.578125 11.523438 541.511719 11.472656 C 541.445312 11.421875 541.359375 11.371094 541.292969 11.339844 L 541.023438 11.1875 L 540.890625 11.105469 L 540.757812 11.035156 L 540.488281 10.886719 L 540.222656 10.75 L 540.085938 10.683594 L 539.953125 10.617188 C 539.871094 10.566406 539.769531 10.53125 539.667969 10.480469 L 539.382812 10.363281 C 539.015625 10.210938 538.628906 10.0625 538.246094 9.945312 C 538.058594 9.875 537.859375 9.824219 537.65625 9.777344 L 537.355469 9.707031 L 537.207031 9.675781 L 537.054688 9.640625 C 536.015625 9.421875 534.945312 9.320312 533.871094 9.355469 C 532.800781 9.390625 531.726562 9.523438 530.6875 9.777344 C 528.59375 10.28125 526.585938 11.203125 524.777344 12.429688 C 523.871094 13.054688 523.015625 13.742188 522.230469 14.5 L 522.179688 14.550781 L 522.230469 14.601562 C 523.015625 15.355469 523.871094 16.046875 524.777344 16.667969 C 526.585938 17.894531 528.59375 18.820312 530.6875 19.324219 C 531.746094 19.574219 532.800781 19.726562 533.871094 19.746094 C 534.945312 19.777344 536 19.675781 537.054688 19.457031 L 537.207031 19.425781 L 537.355469 19.390625 L 537.65625 19.324219 C 537.859375 19.273438 538.042969 19.222656 538.246094 19.15625 C 538.628906 19.039062 539.015625 18.902344 539.382812 18.753906 L 539.667969 18.632812 C 539.769531 18.601562 539.851562 18.550781 539.953125 18.5 L 540.085938 18.433594 L 540.222656 18.367188 L 540.488281 18.230469 L 540.757812 18.078125 L 540.890625 18.011719 L 541.023438 17.929688 L 541.292969 17.777344 C 541.292969 17.777344 541.425781 17.691406 541.511719 17.644531 C 541.59375 17.59375 541.660156 17.523438 541.746094 17.476562 C 543.253906 16.683594 545.011719 16.433594 546.6875 16.214844 C 551.460938 15.625 556.320312 15.84375 561.109375 15.84375 C 624.011719 15.792969 851.296875 15.84375 851.296875 15.84375 L 851.296875 13.324219 C 851.296875 13.324219 624.011719 13.355469 561.109375 13.324219 Z M 561.109375 13.273438 " fill-opacity="1" fill-rule="nonzero"/></g><g clip-path="url(#36a24be935)"><path fill="#000000" d="M 494.90625 19.558594 C 494.839844 19.054688 494.742188 18.566406 494.621094 18.078125 C 494.503906 17.59375 494.339844 17.121094 494.152344 16.667969 C 494.136719 16.617188 494.121094 16.582031 494.105469 16.535156 C 493.886719 16.753906 493.652344 16.96875 493.417969 17.171875 C 492.929688 17.574219 492.394531 17.945312 491.824219 18.25 C 491.257812 18.550781 490.652344 18.804688 490.03125 18.972656 C 489.414062 19.140625 488.792969 19.257812 488.15625 19.324219 C 487.535156 19.375 486.902344 19.375 486.28125 19.324219 C 485.660156 19.273438 485.058594 19.171875 484.453125 19.039062 C 483.851562 18.902344 483.265625 18.71875 482.695312 18.515625 C 482.125 18.296875 481.574219 18.0625 481.039062 17.777344 C 480.769531 17.644531 480.5 17.492188 480.25 17.324219 L 480.050781 17.207031 L 479.863281 17.089844 C 479.746094 17.003906 479.613281 16.921875 479.496094 16.835938 C 479.09375 16.566406 478.710938 16.265625 478.324219 15.960938 C 478.089844 16.214844 477.871094 16.484375 477.636719 16.753906 C 477.203125 17.289062 476.800781 17.84375 476.429688 18.433594 C 477.988281 19.878906 479.429688 21.390625 480.835938 22.886719 C 481.589844 23.695312 482.34375 24.484375 483.113281 25.257812 L 483.667969 25.8125 C 483.769531 25.898438 483.851562 25.996094 483.953125 26.082031 L 484.238281 26.335938 C 484.621094 26.671875 485.023438 26.988281 485.425781 27.292969 C 485.828125 27.59375 486.246094 27.863281 486.683594 28.097656 C 487.117188 28.335938 487.554688 28.535156 487.988281 28.6875 C 488.425781 28.839844 488.859375 28.941406 489.296875 28.988281 L 489.613281 28.988281 C 489.613281 28.988281 489.664062 29.023438 489.699219 29.023438 L 490.082031 29.023438 C 490.082031 29.023438 490.183594 29.007812 490.234375 28.988281 L 490.386719 28.988281 C 490.386719 28.988281 490.433594 28.957031 490.453125 28.957031 L 490.519531 28.957031 C 490.921875 28.855469 491.304688 28.703125 491.65625 28.503906 C 491.675781 28.503906 491.707031 28.484375 491.726562 28.46875 L 491.792969 28.417969 L 491.925781 28.335938 C 491.925781 28.335938 491.976562 28.300781 491.992188 28.285156 L 492.058594 28.234375 L 492.195312 28.132812 C 492.195312 28.132812 492.246094 28.097656 492.261719 28.082031 L 492.460938 27.929688 L 492.578125 27.8125 L 492.644531 27.761719 L 492.714844 27.695312 L 492.832031 27.578125 L 492.949219 27.445312 L 493 27.375 L 493.046875 27.308594 L 493.164062 27.175781 L 493.265625 27.039062 L 493.367188 26.90625 L 493.46875 26.769531 L 493.566406 26.621094 C 493.820312 26.234375 494.035156 25.8125 494.222656 25.375 C 494.40625 24.9375 494.554688 24.46875 494.671875 23.996094 C 494.789062 23.527344 494.875 23.039062 494.925781 22.535156 C 494.976562 22.046875 494.992188 21.542969 494.992188 21.039062 C 494.992188 20.785156 494.976562 20.535156 494.957031 20.28125 C 494.941406 20.03125 494.90625 19.777344 494.875 19.542969 Z M 494.90625 19.558594 " fill-opacity="1" fill-rule="nonzero"/></g><path fill="#000000" d="M 490.570312 12.363281 C 490.167969 12.144531 489.730469 11.976562 489.296875 11.84375 C 488.859375 11.707031 488.390625 11.625 487.921875 11.589844 C 487.453125 11.558594 486.96875 11.558594 486.480469 11.589844 C 485.996094 11.625 485.511719 11.707031 485.042969 11.808594 C 484.085938 12.027344 483.148438 12.382812 482.261719 12.835938 C 482.042969 12.953125 481.824219 13.070312 481.605469 13.203125 L 481.457031 13.304688 L 481.304688 13.40625 C 481.203125 13.472656 481.085938 13.542969 480.988281 13.609375 C 480.753906 13.777344 480.519531 13.945312 480.285156 14.113281 C 480.519531 14.296875 480.753906 14.464844 480.988281 14.617188 C 481.085938 14.683594 481.203125 14.75 481.304688 14.820312 L 481.457031 14.917969 L 481.605469 15.019531 C 481.824219 15.15625 482.042969 15.273438 482.261719 15.390625 C 483.148438 15.84375 484.085938 16.214844 485.042969 16.414062 C 485.527344 16.515625 485.996094 16.601562 486.480469 16.632812 C 486.96875 16.667969 487.4375 16.667969 487.921875 16.632812 C 488.390625 16.582031 488.859375 16.5 489.296875 16.382812 C 489.75 16.265625 490.167969 16.078125 490.570312 15.859375 C 490.972656 15.640625 491.355469 15.390625 491.707031 15.085938 C 492.058594 14.785156 492.394531 14.449219 492.695312 14.097656 C 492.394531 13.726562 492.078125 13.390625 491.707031 13.105469 C 491.355469 12.800781 490.972656 12.550781 490.570312 12.332031 Z M 490.570312 12.363281 " fill-opacity="1" fill-rule="nonzero"/><path fill="#000000" d="M 478.324219 12.3125 C 478.710938 12.011719 479.09375 11.707031 479.496094 11.441406 C 479.613281 11.355469 479.746094 11.273438 479.863281 11.1875 L 480.050781 11.070312 L 480.25 10.953125 C 480.5 10.800781 480.769531 10.648438 481.039062 10.5 C 481.574219 10.210938 482.125 9.976562 482.695312 9.757812 C 483.265625 9.539062 483.851562 9.371094 484.453125 9.238281 C 485.058594 9.101562 485.660156 9.003906 486.28125 8.953125 C 486.902344 8.902344 487.519531 8.902344 488.15625 8.953125 C 488.792969 9.003906 489.414062 9.121094 490.03125 9.304688 C 490.652344 9.472656 491.257812 9.726562 491.824219 10.027344 C 492.394531 10.332031 492.929688 10.699219 493.417969 11.105469 C 493.652344 11.304688 493.886719 11.523438 494.105469 11.742188 C 494.121094 11.691406 494.136719 11.660156 494.152344 11.609375 C 494.339844 11.152344 494.488281 10.667969 494.621094 10.195312 C 494.742188 9.707031 494.839844 9.222656 494.90625 8.714844 L 494.941406 8.53125 L 494.941406 8.347656 L 494.976562 8.246094 L 494.976562 8.160156 C 494.976562 8.160156 494.992188 8.042969 494.992188 7.976562 C 495.007812 7.742188 495.007812 7.488281 495.007812 7.253906 C 495.007812 6.765625 494.957031 6.296875 494.875 5.808594 C 494.707031 4.851562 494.40625 3.925781 493.953125 3.085938 C 493.5 2.246094 492.914062 1.519531 492.210938 0.984375 C 491.859375 0.714844 491.492188 0.496094 491.089844 0.34375 C 490.6875 0.195312 490.285156 0.09375 489.847656 0.0585938 C 489.632812 0.0429688 489.414062 0.0429688 489.195312 0.0585938 C 488.976562 0.0585938 488.761719 0.09375 488.542969 0.144531 C 488.324219 0.175781 488.105469 0.226562 487.871094 0.292969 C 487.820312 0.292969 487.753906 0.328125 487.703125 0.34375 C 487.65625 0.363281 487.605469 0.378906 487.535156 0.394531 C 487.417969 0.445312 487.300781 0.480469 487.183594 0.53125 C 486.265625 0.882812 485.394531 1.371094 484.539062 1.957031 C 483.683594 2.53125 482.878906 3.203125 482.074219 3.910156 C 481.273438 4.613281 480.484375 5.371094 479.679688 6.128906 C 479.277344 6.515625 478.875 6.902344 478.457031 7.269531 C 478.355469 7.371094 478.257812 7.457031 478.140625 7.554688 C 478.039062 7.65625 477.921875 7.742188 477.820312 7.84375 L 477.203125 8.398438 C 476.847656 8.714844 476.480469 9.019531 476.128906 9.339844 C 476.582031 10.09375 477.085938 10.835938 477.636719 11.523438 C 477.855469 11.792969 478.089844 12.0625 478.324219 12.3125 Z M 478.324219 12.3125 " fill-opacity="1" fill-rule="nonzero"/><path fill="#000000" d="M 474.101562 11.085938 C 472.964844 12.046875 471.789062 13.003906 470.601562 13.910156 C 470.632812 13.929688 470.667969 13.945312 470.683594 13.960938 C 471.621094 14.582031 472.542969 15.238281 473.449219 15.910156 C 473.667969 16.078125 473.902344 16.265625 474.136719 16.433594 C 474.234375 16.515625 474.335938 16.582031 474.4375 16.667969 C 474.804688 16.113281 475.191406 15.59375 475.609375 15.070312 C 475.878906 14.75 476.144531 14.433594 476.414062 14.128906 C 476.128906 13.828125 475.859375 13.507812 475.609375 13.1875 C 475.074219 12.515625 474.570312 11.808594 474.117188 11.085938 Z M 474.101562 11.085938 " fill-opacity="1" fill-rule="nonzero"/><path fill="#000000" d="M 513.015625 11.640625 C 512.378906 10.984375 511.761719 10.195312 511.191406 9.253906 C 510.90625 8.785156 510.621094 8.28125 510.351562 7.742188 C 510.101562 7.203125 509.851562 6.632812 509.632812 6.027344 C 509.582031 5.890625 509.53125 5.742188 509.480469 5.605469 L 509.449219 5.605469 L 509.246094 5.574219 C 509.113281 5.554688 508.980469 5.523438 508.828125 5.503906 C 508.277344 5.421875 507.707031 5.355469 507.136719 5.320312 C 506.984375 5.320312 506.851562 5.304688 506.699219 5.285156 C 506.550781 5.285156 506.417969 5.285156 506.265625 5.285156 L 505.394531 5.285156 C 504.808594 5.285156 504.238281 5.320312 503.652344 5.386719 C 503.382812 5.421875 503.117188 5.457031 502.847656 5.488281 L 502.613281 6.363281 C 502.246094 7.757812 501.742188 9.050781 501.121094 10.246094 C 500.570312 11.289062 499.949219 12.179688 499.28125 12.9375 C 498.742188 13.542969 498.15625 14.097656 497.539062 14.566406 L 497.570312 14.566406 C 497.570312 14.566406 497.605469 14.617188 497.621094 14.632812 C 497.789062 14.75 497.941406 14.886719 498.058594 14.988281 C 498.089844 15.019531 498.140625 15.054688 498.175781 15.085938 L 498.207031 15.085938 L 498.242188 15.136719 C 498.542969 15.40625 498.929688 15.777344 499.296875 16.214844 C 499.964844 16.96875 500.585938 17.863281 501.140625 18.902344 C 501.757812 20.097656 502.261719 21.390625 502.628906 22.785156 L 502.863281 23.660156 C 503.132812 23.695312 503.402344 23.726562 503.667969 23.761719 C 504.238281 23.828125 504.824219 23.847656 505.410156 23.863281 C 505.996094 23.863281 506.566406 23.863281 507.136719 23.8125 C 507.707031 23.777344 508.277344 23.710938 508.828125 23.628906 C 508.960938 23.609375 509.113281 23.578125 509.246094 23.558594 L 509.449219 23.527344 L 509.480469 23.527344 C 509.53125 23.375 509.582031 23.242188 509.632812 23.105469 C 509.851562 22.5 510.101562 21.929688 510.351562 21.390625 C 510.621094 20.855469 510.890625 20.347656 511.191406 19.878906 C 511.777344 18.9375 512.394531 18.148438 513.015625 17.492188 C 514.273438 16.179688 515.5625 15.441406 516.652344 15.039062 C 517.554688 14.699219 518.34375 14.601562 518.914062 14.582031 C 518.328125 14.550781 517.554688 14.449219 516.652344 14.113281 C 515.5625 13.726562 514.273438 12.96875 513.015625 11.660156 Z M 513.015625 11.640625 " fill-opacity="1" fill-rule="nonzero"/><g clip-path="url(#bebb8a80b3)"><path fill="#000000" d="M 340.222656 12.429688 C 338.414062 11.203125 336.402344 10.28125 334.308594 9.777344 C 333.253906 9.523438 332.183594 9.371094 331.128906 9.355469 C 330.054688 9.320312 329 9.421875 327.960938 9.640625 L 327.808594 9.675781 L 327.660156 9.707031 L 327.359375 9.777344 C 327.15625 9.824219 326.972656 9.875 326.773438 9.945312 C 326.386719 10.0625 326 10.195312 325.632812 10.363281 L 325.347656 10.480469 C 325.246094 10.515625 325.164062 10.566406 325.078125 10.617188 L 324.8125 10.75 L 324.542969 10.886719 L 324.277344 11.035156 L 324.140625 11.105469 L 324.007812 11.1875 L 323.738281 11.339844 C 323.738281 11.339844 323.605469 11.421875 323.523438 11.472656 C 323.453125 11.523438 323.386719 11.574219 323.304688 11.625 C 321.78125 12.429688 320.019531 12.683594 318.347656 12.902344 C 313.570312 13.492188 308.714844 13.273438 303.921875 13.273438 C 241.019531 13.324219 13.734375 13.273438 13.734375 13.273438 L 13.734375 15.792969 C 13.734375 15.792969 241.019531 15.761719 303.921875 15.792969 C 308.730469 15.792969 313.570312 15.574219 318.347656 16.164062 C 320.019531 16.367188 321.761719 16.632812 323.289062 17.425781 C 323.371094 17.492188 323.4375 17.542969 323.523438 17.59375 C 323.589844 17.644531 323.671875 17.691406 323.738281 17.726562 L 324.007812 17.878906 L 324.140625 17.960938 L 324.277344 18.03125 L 324.542969 18.179688 L 324.8125 18.316406 L 325.078125 18.449219 C 325.179688 18.5 325.265625 18.535156 325.347656 18.585938 L 325.632812 18.703125 C 326 18.851562 326.386719 19.003906 326.773438 19.105469 C 326.957031 19.171875 327.15625 19.222656 327.359375 19.273438 L 327.660156 19.339844 L 327.808594 19.375 L 327.960938 19.40625 C 329 19.625 330.070312 19.726562 331.144531 19.695312 C 332.214844 19.660156 333.289062 19.527344 334.328125 19.273438 C 336.421875 18.769531 338.429688 17.84375 340.238281 16.617188 C 341.144531 15.996094 342 15.304688 342.785156 14.550781 L 342.835938 14.5 L 342.785156 14.449219 C 342 13.691406 341.144531 13.003906 340.238281 12.382812 Z M 340.222656 12.429688 " fill-opacity="1" fill-rule="nonzero"/></g><g clip-path="url(#061c7020bd)"><path fill="#000000" d="M 386.691406 15.960938 C 386.308594 16.265625 385.921875 16.566406 385.519531 16.835938 C 385.402344 16.921875 385.269531 17.003906 385.152344 17.089844 L 384.96875 17.207031 L 384.765625 17.324219 C 384.515625 17.476562 384.246094 17.625 383.980469 17.777344 C 383.441406 18.0625 382.890625 18.296875 382.320312 18.515625 C 381.75 18.734375 381.164062 18.902344 380.5625 19.039062 C 379.957031 19.171875 379.355469 19.273438 378.734375 19.324219 C 378.117188 19.375 377.496094 19.375 376.859375 19.324219 C 376.222656 19.273438 375.601562 19.15625 374.984375 18.972656 C 374.363281 18.804688 373.761719 18.550781 373.191406 18.25 C 372.621094 17.945312 372.085938 17.574219 371.597656 17.171875 C 371.363281 16.96875 371.128906 16.75 370.914062 16.535156 C 370.894531 16.582031 370.878906 16.617188 370.863281 16.667969 C 370.679688 17.121094 370.527344 17.609375 370.394531 18.078125 C 370.277344 18.566406 370.175781 19.054688 370.109375 19.558594 C 370.074219 19.8125 370.042969 20.0625 370.023438 20.300781 C 370.007812 20.550781 369.992188 20.804688 369.992188 21.054688 C 369.992188 21.558594 369.992188 22.0625 370.058594 22.550781 C 370.109375 23.039062 370.191406 23.527344 370.308594 24.015625 C 370.425781 24.484375 370.578125 24.957031 370.761719 25.394531 C 370.945312 25.828125 371.164062 26.25 371.414062 26.636719 L 371.515625 26.789062 L 371.667969 26.988281 L 371.714844 27.058594 L 371.816406 27.191406 L 371.933594 27.324219 L 371.984375 27.394531 L 372.035156 27.460938 L 372.152344 27.59375 L 372.269531 27.710938 L 372.335938 27.78125 L 372.402344 27.832031 L 372.519531 27.949219 L 372.65625 28.046875 L 372.722656 28.097656 C 372.722656 28.097656 372.773438 28.132812 372.789062 28.148438 L 372.988281 28.300781 C 372.988281 28.300781 373.039062 28.335938 373.054688 28.351562 L 373.191406 28.433594 L 373.257812 28.484375 C 373.257812 28.484375 373.308594 28.519531 373.324219 28.519531 C 373.691406 28.722656 374.0625 28.871094 374.464844 28.957031 L 374.53125 28.957031 C 374.53125 28.957031 374.582031 28.972656 374.597656 28.988281 L 374.75 28.988281 C 374.75 28.988281 374.847656 29.023438 374.898438 29.023438 L 375.285156 29.023438 C 375.285156 29.023438 375.335938 29.023438 375.367188 29.023438 L 375.6875 29.023438 C 376.121094 28.957031 376.558594 28.855469 376.992188 28.6875 C 377.429688 28.535156 377.863281 28.335938 378.300781 28.097656 C 378.734375 27.863281 379.152344 27.59375 379.554688 27.292969 C 379.957031 26.988281 380.359375 26.671875 380.746094 26.335938 L 381.03125 26.082031 C 381.128906 25.996094 381.214844 25.914062 381.316406 25.8125 L 381.449219 25.679688 L 381.515625 25.609375 L 381.867188 25.257812 C 382.636719 24.484375 383.390625 23.695312 384.144531 22.886719 C 385.570312 21.390625 386.992188 19.878906 388.550781 18.433594 C 388.183594 17.84375 387.78125 17.289062 387.34375 16.753906 C 387.128906 16.484375 386.894531 16.214844 386.660156 15.960938 Z M 386.691406 15.960938 " fill-opacity="1" fill-rule="nonzero"/></g><path fill="#000000" d="M 383.558594 13.304688 L 383.410156 13.203125 C 383.191406 13.070312 382.972656 12.953125 382.753906 12.835938 C 381.867188 12.382812 380.929688 12.011719 379.976562 11.808594 C 379.488281 11.707031 379.019531 11.625 378.535156 11.589844 C 378.046875 11.558594 377.578125 11.558594 377.09375 11.589844 C 376.625 11.640625 376.15625 11.726562 375.71875 11.84375 C 375.285156 11.960938 374.847656 12.144531 374.445312 12.363281 C 374.042969 12.582031 373.660156 12.835938 373.308594 13.136719 C 372.957031 13.441406 372.621094 13.777344 372.320312 14.128906 C 372.621094 14.5 372.9375 14.835938 373.308594 15.121094 C 373.660156 15.425781 374.046875 15.675781 374.445312 15.894531 C 374.847656 16.113281 375.285156 16.28125 375.71875 16.414062 C 376.171875 16.550781 376.625 16.632812 377.09375 16.667969 C 377.5625 16.703125 378.046875 16.703125 378.535156 16.667969 C 379.019531 16.632812 379.507812 16.550781 379.976562 16.449219 C 380.929688 16.230469 381.867188 15.878906 382.753906 15.425781 C 382.972656 15.304688 383.191406 15.1875 383.410156 15.054688 L 383.558594 14.953125 L 383.710938 14.851562 C 383.8125 14.785156 383.929688 14.71875 384.027344 14.652344 C 384.261719 14.484375 384.496094 14.3125 384.734375 14.144531 C 384.496094 13.960938 384.261719 13.792969 384.027344 13.640625 C 383.929688 13.574219 383.8125 13.507812 383.710938 13.441406 L 383.558594 13.339844 Z M 383.558594 13.304688 " fill-opacity="1" fill-rule="nonzero"/><path fill="#000000" d="M 370.042969 8.160156 L 370.042969 8.347656 L 370.074219 8.53125 L 370.109375 8.714844 C 370.175781 9.222656 370.277344 9.707031 370.394531 10.195312 C 370.511719 10.683594 370.679688 11.152344 370.863281 11.609375 C 370.878906 11.660156 370.894531 11.691406 370.914062 11.742188 C 371.128906 11.523438 371.363281 11.304688 371.597656 11.105469 C 372.085938 10.699219 372.621094 10.332031 373.191406 10.027344 C 373.761719 9.726562 374.363281 9.472656 374.984375 9.304688 C 375.601562 9.136719 376.222656 9.019531 376.859375 8.953125 C 377.480469 8.902344 378.117188 8.902344 378.734375 8.953125 C 379.355469 9.003906 379.957031 9.101562 380.5625 9.238281 C 381.164062 9.371094 381.75 9.558594 382.320312 9.757812 C 382.890625 9.976562 383.441406 10.210938 383.980469 10.5 C 384.246094 10.632812 384.515625 10.785156 384.765625 10.953125 L 384.96875 11.070312 L 385.152344 11.1875 C 385.269531 11.273438 385.402344 11.355469 385.519531 11.441406 C 385.921875 11.707031 386.308594 12.011719 386.691406 12.3125 C 386.925781 12.0625 387.144531 11.792969 387.378906 11.523438 C 387.933594 10.835938 388.433594 10.113281 388.902344 9.339844 C 388.535156 9.019531 388.183594 8.714844 387.832031 8.398438 L 387.210938 7.84375 C 387.109375 7.742188 386.992188 7.65625 386.894531 7.554688 C 386.792969 7.457031 386.675781 7.371094 386.574219 7.269531 C 386.15625 6.882812 385.753906 6.496094 385.351562 6.128906 C 384.546875 5.371094 383.761719 4.613281 382.957031 3.910156 C 382.152344 3.203125 381.332031 2.53125 380.496094 1.957031 C 379.640625 1.386719 378.769531 0.882812 377.847656 0.53125 C 377.730469 0.480469 377.613281 0.445312 377.496094 0.394531 C 377.445312 0.378906 377.378906 0.363281 377.328125 0.34375 C 377.277344 0.328125 377.210938 0.3125 377.160156 0.292969 C 376.941406 0.226562 376.726562 0.175781 376.492188 0.144531 C 376.273438 0.109375 376.054688 0.0742188 375.835938 0.0585938 C 375.621094 0.0585938 375.402344 0.0585938 375.183594 0.0585938 C 374.765625 0.09375 374.347656 0.195312 373.945312 0.34375 C 373.542969 0.496094 373.175781 0.714844 372.820312 0.984375 C 372.117188 1.519531 371.53125 2.246094 371.078125 3.085938 C 370.628906 3.925781 370.324219 4.851562 370.160156 5.808594 C 370.074219 6.277344 370.023438 6.765625 370.023438 7.253906 C 370.023438 7.488281 370.023438 7.742188 370.042969 7.976562 C 370.042969 8.042969 370.042969 8.09375 370.042969 8.160156 Z M 370.042969 8.160156 " fill-opacity="1" fill-rule="nonzero"/><path fill="#000000" d="M 389.421875 13.1875 C 389.15625 13.507812 388.886719 13.828125 388.617188 14.128906 C 388.902344 14.433594 389.171875 14.75 389.421875 15.070312 C 389.839844 15.59375 390.226562 16.113281 390.59375 16.667969 C 390.695312 16.582031 390.796875 16.515625 390.898438 16.433594 C 391.132812 16.265625 391.347656 16.078125 391.582031 15.910156 C 392.488281 15.238281 393.410156 14.582031 394.347656 13.960938 L 394.429688 13.910156 C 393.226562 13.003906 392.070312 12.0625 390.929688 11.085938 C 390.476562 11.808594 389.976562 12.515625 389.441406 13.1875 Z M 389.421875 13.1875 " fill-opacity="1" fill-rule="nonzero"/><path fill="#000000" d="M 365.734375 12.917969 C 365.066406 12.164062 364.445312 11.253906 363.894531 10.230469 C 363.273438 9.035156 362.769531 7.742188 362.402344 6.347656 L 362.167969 5.472656 C 361.898438 5.4375 361.632812 5.40625 361.363281 5.371094 C 360.792969 5.304688 360.207031 5.285156 359.621094 5.269531 L 358.75 5.269531 C 358.601562 5.269531 358.464844 5.269531 358.316406 5.285156 C 358.164062 5.285156 358.03125 5.304688 357.878906 5.320312 C 357.308594 5.355469 356.742188 5.421875 356.1875 5.503906 C 356.054688 5.523438 355.902344 5.554688 355.769531 5.574219 L 355.566406 5.605469 L 355.535156 5.605469 C 355.484375 5.757812 355.433594 5.890625 355.382812 6.027344 C 355.164062 6.632812 354.914062 7.203125 354.664062 7.742188 C 354.394531 8.28125 354.128906 8.785156 353.84375 9.253906 C 353.257812 10.195312 352.636719 10.984375 352.015625 11.640625 C 350.761719 12.953125 349.46875 13.691406 348.382812 14.097656 C 347.476562 14.433594 346.691406 14.53125 346.121094 14.550781 C 346.707031 14.582031 347.476562 14.683594 348.382812 15.019531 C 349.46875 15.40625 350.761719 16.164062 352.015625 17.476562 C 352.652344 18.128906 353.273438 18.921875 353.84375 19.863281 C 354.128906 20.332031 354.410156 20.835938 354.664062 21.375 C 354.914062 21.914062 355.164062 22.484375 355.382812 23.089844 C 355.433594 23.222656 355.484375 23.375 355.535156 23.511719 L 355.566406 23.511719 L 355.769531 23.542969 C 355.902344 23.558594 356.054688 23.59375 356.1875 23.609375 C 356.742188 23.695312 357.308594 23.761719 357.878906 23.796875 C 358.449219 23.847656 359.035156 23.847656 359.605469 23.847656 C 360.191406 23.828125 360.761719 23.796875 361.347656 23.746094 C 361.617188 23.710938 361.882812 23.679688 362.152344 23.644531 L 362.386719 22.769531 C 362.753906 21.375 363.257812 20.082031 363.875 18.902344 C 364.429688 17.863281 365.050781 16.953125 365.71875 16.214844 C 366.105469 15.777344 366.488281 15.40625 366.773438 15.136719 L 366.808594 15.105469 L 366.839844 15.105469 C 366.839844 15.105469 366.925781 15.019531 366.960938 14.988281 C 367.078125 14.886719 367.226562 14.75 367.394531 14.632812 C 367.410156 14.632812 367.429688 14.601562 367.445312 14.601562 L 367.476562 14.601562 C 366.839844 14.113281 366.253906 13.558594 365.734375 12.953125 Z M 365.734375 12.917969 " fill-opacity="1" fill-rule="nonzero"/><path fill="#000000" d="M 396.425781 13.894531 L 432.507812 15.390625 L 468.589844 13.894531 L 432.507812 12.382812 Z M 396.425781 13.894531 " fill-opacity="1" fill-rule="nonzero"/></svg>