<svg xmlns="http://www.w3.org/2000/svg" xmlns:xlink="http://www.w3.org/1999/xlink" width="45" zoomAndPan="magnify" viewBox="0 0 33.75 42.749999" height="57" preserveAspectRatio="xMidYMid meet" version="1.0"><defs><clipPath id="993337154e"><path d="M 0 9.414062 L 33.5 9.414062 L 33.5 35.46875 L 0 35.46875 Z M 0 9.414062 " clip-rule="nonzero"/></clipPath></defs><g clip-path="url(#993337154e)"><path fill="#000000" d="M 16.75 10.050781 C 10.707031 10.050781 5.050781 12.453125 0.828125 16.816406 C 0.699219 16.949219 0.628906 17.125 0.632812 17.3125 C 0.632812 17.5 0.707031 17.675781 0.839844 17.804688 C 0.972656 17.9375 1.148438 18.007812 1.332031 18.003906 C 1.519531 18.003906 1.691406 17.925781 1.820312 17.792969 C 5.78125 13.703125 11.082031 11.453125 16.75 11.453125 C 22.414062 11.453125 27.71875 13.703125 31.679688 17.792969 C 31.8125 17.929688 31.988281 18.003906 32.175781 18.003906 C 32.359375 18.003906 32.53125 17.933594 32.660156 17.804688 C 32.792969 17.675781 32.867188 17.5 32.871094 17.3125 C 32.871094 17.125 32.800781 16.949219 32.671875 16.816406 C 28.449219 12.453125 22.792969 10.050781 16.75 10.050781 Z M 1.324219 18.636719 C 0.976562 18.636719 0.652344 18.503906 0.402344 18.257812 C 0.148438 18.011719 0.0078125 17.675781 0.00390625 17.320312 C 0 16.964844 0.132812 16.628906 0.378906 16.375 C 4.722656 11.890625 10.535156 9.417969 16.75 9.417969 C 22.960938 9.417969 28.777344 11.890625 33.121094 16.375 C 33.367188 16.628906 33.503906 16.964844 33.5 17.320312 C 33.496094 17.675781 33.351562 18.007812 33.101562 18.257812 C 32.851562 18.503906 32.523438 18.636719 32.175781 18.636719 C 31.816406 18.636719 31.480469 18.496094 31.230469 18.238281 C 27.386719 14.269531 22.246094 12.085938 16.75 12.085938 C 11.253906 12.085938 6.109375 14.269531 2.269531 18.234375 C 2.023438 18.492188 1.695312 18.632812 1.339844 18.636719 C 1.335938 18.636719 1.328125 18.636719 1.324219 18.636719 Z M 16.75 15.035156 C 12.003906 15.035156 7.558594 16.925781 4.230469 20.363281 C 3.960938 20.636719 3.96875 21.082031 4.242188 21.351562 C 4.371094 21.480469 4.542969 21.550781 4.726562 21.550781 C 4.914062 21.550781 5.089844 21.476562 5.222656 21.339844 C 8.285156 18.175781 12.378906 16.433594 16.75 16.433594 C 21.121094 16.433594 25.214844 18.175781 28.28125 21.339844 C 28.546875 21.617188 28.988281 21.621094 29.261719 21.351562 C 29.535156 21.082031 29.539062 20.636719 29.273438 20.363281 C 25.945312 16.925781 21.496094 15.035156 16.75 15.035156 Z M 4.726562 22.183594 C 4.378906 22.183594 4.050781 22.046875 3.800781 21.804688 C 3.28125 21.289062 3.269531 20.445312 3.78125 19.917969 C 7.226562 16.359375 11.832031 14.398438 16.75 14.398438 C 21.667969 14.398438 26.273438 16.359375 29.722656 19.917969 C 30.230469 20.445312 30.222656 21.289062 29.699219 21.804688 C 29.179688 22.316406 28.339844 22.308594 27.832031 21.78125 C 24.886719 18.742188 20.949219 17.066406 16.75 17.066406 C 12.550781 17.066406 8.617188 18.742188 5.671875 21.78125 C 5.421875 22.039062 5.085938 22.183594 4.726562 22.183594 Z M 16.75 20.015625 C 13.285156 20.015625 10.042969 21.394531 7.621094 23.902344 C 7.492188 24.035156 7.421875 24.210938 7.421875 24.398438 C 7.425781 24.585938 7.5 24.761719 7.632812 24.890625 C 7.761719 25.019531 7.933594 25.089844 8.117188 25.089844 C 8.304688 25.089844 8.480469 25.015625 8.613281 24.878906 C 10.773438 22.644531 13.660156 21.414062 16.75 21.414062 C 19.835938 21.414062 22.726562 22.644531 24.886719 24.878906 C 25.152344 25.152344 25.59375 25.160156 25.867188 24.890625 C 26.140625 24.621094 26.144531 24.179688 25.878906 23.902344 C 23.457031 21.394531 20.214844 20.015625 16.75 20.015625 Z M 8.117188 25.722656 C 7.769531 25.722656 7.441406 25.589844 7.195312 25.34375 C 6.941406 25.097656 6.800781 24.761719 6.796875 24.40625 C 6.789062 24.050781 6.925781 23.714844 7.171875 23.460938 C 9.710938 20.828125 13.113281 19.382812 16.75 19.382812 C 20.386719 19.382812 23.789062 20.828125 26.328125 23.460938 C 26.835938 23.984375 26.828125 24.832031 26.304688 25.34375 C 25.78125 25.855469 24.945312 25.847656 24.4375 25.320312 C 22.394531 23.210938 19.667969 22.046875 16.75 22.046875 C 13.832031 22.046875 11.101562 23.210938 9.0625 25.320312 C 8.8125 25.578125 8.476562 25.722656 8.117188 25.722656 Z M 16.75 26.394531 C 18.550781 26.394531 20.234375 27.113281 21.496094 28.417969 C 21.625 28.554688 21.800781 28.628906 21.992188 28.628906 C 22.171875 28.628906 22.34375 28.558594 22.476562 28.429688 C 22.75 28.160156 22.753906 27.71875 22.488281 27.441406 C 20.964844 25.863281 18.925781 24.996094 16.75 24.996094 C 14.570312 24.996094 12.535156 25.863281 11.011719 27.441406 C 10.742188 27.71875 10.75 28.160156 11.023438 28.429688 C 11.296875 28.699219 11.738281 28.695312 12.003906 28.417969 C 13.265625 27.113281 14.949219 26.394531 16.75 26.394531 Z M 21.992188 29.261719 C 21.632812 29.261719 21.296875 29.117188 21.042969 28.859375 C 19.902344 27.679688 18.378906 27.027344 16.75 27.027344 C 15.121094 27.027344 13.59375 27.679688 12.453125 28.859375 C 11.945312 29.386719 11.105469 29.398438 10.585938 28.882812 C 10.0625 28.371094 10.050781 27.523438 10.5625 27 C 12.203125 25.300781 14.402344 24.363281 16.75 24.363281 C 19.097656 24.363281 21.296875 25.300781 22.9375 27 C 23.445312 27.523438 23.433594 28.371094 22.914062 28.882812 C 22.664062 29.128906 22.335938 29.261719 21.992188 29.261719 Z M 16.75 30.175781 C 15.476562 30.175781 14.441406 31.21875 14.441406 32.503906 C 14.441406 33.789062 15.476562 34.832031 16.75 34.832031 C 18.023438 34.832031 19.058594 33.789062 19.058594 32.503906 C 19.058594 31.21875 18.023438 30.175781 16.75 30.175781 Z M 16.75 35.464844 C 15.132812 35.464844 13.8125 34.136719 13.8125 32.503906 C 13.8125 30.871094 15.132812 29.542969 16.75 29.542969 C 18.371094 29.542969 19.6875 30.871094 19.6875 32.503906 C 19.6875 34.136719 18.371094 35.464844 16.75 35.464844 " fill-opacity="1" fill-rule="nonzero"/></g></svg>